<svg xmlns="http://www.w3.org/2000/svg" xmlns:xlink="http://www.w3.org/1999/xlink" width="500" zoomAndPan="magnify" viewBox="0 0 375 374.999991" height="500" preserveAspectRatio="xMidYMid meet" version="1.0"><defs><filter x="0%" y="0%" width="100%" height="100%" id="f48234b6cc"><feColorMatrix values="0 0 0 0 1 0 0 0 0 1 0 0 0 0 1 0 0 0 1 0" color-interpolation-filters="sRGB"/></filter><g/><clipPath id="85f5cd7713"><path d="M 97.199219 69.578125 L 279.449219 69.578125 L 279.449219 257.828125 L 97.199219 257.828125 Z M 97.199219 69.578125 " clip-rule="nonzero"/></clipPath><mask id="f05ada0e1d"><g filter="url(#f48234b6cc)"><rect x="-37.5" width="450" fill="#000000" y="-37.499999" height="449.999989" fill-opacity="0.62"/></g></mask><clipPath id="906c849e5d"><path d="M 0.496094 0.0820312 L 36.773438 0.0820312 L 36.773438 162.625 L 0.496094 162.625 Z M 0.496094 0.0820312 " clip-rule="nonzero"/></clipPath><clipPath id="3c9ff32a09"><path d="M 36.773438 38.304688 L 36.773438 162.613281 L 0.496094 124.390625 L 0.496094 0.0820312 Z M 36.773438 38.304688 " clip-rule="nonzero"/></clipPath><clipPath id="157ed6a271"><rect x="0" width="37" y="0" height="163"/></clipPath><mask id="6bf3d54212"><g filter="url(#f48234b6cc)"><rect x="-37.5" width="450" fill="#000000" y="-37.499999" height="449.999989" fill-opacity="0.72"/></g></mask><clipPath id="b4b46479e9"><path d="M 0.183594 0.390625 L 34.507812 0.390625 L 34.507812 90.898438 L 0.183594 90.898438 Z M 0.183594 0.390625 " clip-rule="nonzero"/></clipPath><clipPath id="5acd66fd76"><path d="M 34.507812 34.746094 L 34.507812 90.894531 L 0.183594 56.535156 L 0.183594 0.390625 Z M 34.507812 34.746094 " clip-rule="nonzero"/></clipPath><clipPath id="d53683d8a5"><rect x="0" width="35" y="0" height="92"/></clipPath><clipPath id="b80e0be5c9"><path d="M 46.386719 236.320312 L 348.214844 236.320312 L 348.214844 251.4375 L 46.386719 251.4375 Z M 46.386719 236.320312 " clip-rule="nonzero"/></clipPath></defs><g clip-path="url(#85f5cd7713)"><path fill="#ffffff" d="M 124.417969 176.023438 L 159.382812 141.332031 L 159.382812 92.617188 L 176.644531 109.742188 L 217.109375 69.59375 L 217.109375 162.519531 L 252.078125 197.210938 L 252.078125 249.839844 L 279.296875 249.839844 L 279.296875 257.589844 C 267.640625 257.589844 255.984375 257.589844 244.328125 257.589844 L 244.328125 200.441406 L 217.109375 173.433594 L 217.109375 257.589844 L 209.363281 257.589844 L 209.363281 88.195312 L 182.144531 115.199219 L 197.160156 130.097656 L 197.160156 257.589844 L 189.414062 257.589844 L 189.414062 133.324219 L 167.132812 111.214844 L 167.132812 257.589844 L 159.382812 257.589844 L 159.382812 152.246094 L 132.164062 179.25 L 132.164062 257.585938 C 120.507812 257.585938 108.851562 257.585938 97.199219 257.585938 L 97.199219 249.839844 L 124.417969 249.839844 Z M 124.417969 176.023438 " fill-opacity="1" fill-rule="evenodd"/></g><g mask="url(#f05ada0e1d)"><g transform="matrix(1, 0, 0, 1, 160, 95)"><g clip-path="url(#157ed6a271)"><g clip-path="url(#906c849e5d)"><g clip-path="url(#3c9ff32a09)"><path fill="#ffffff" d="M 36.773438 0.0820312 L 36.773438 162.625 L 0.496094 162.625 L 0.496094 0.0820312 Z M 36.773438 0.0820312 " fill-opacity="1" fill-rule="nonzero"/></g></g></g></g></g><g mask="url(#6bf3d54212)"><g transform="matrix(1, 0, 0, 1, 216, 170)"><g clip-path="url(#d53683d8a5)"><g clip-path="url(#b4b46479e9)"><g clip-path="url(#5acd66fd76)"><path fill="#ffffff" d="M 34.507812 0.390625 L 34.507812 90.898438 L 0.183594 90.898438 L 0.183594 0.390625 Z M 34.507812 0.390625 " fill-opacity="1" fill-rule="nonzero"/></g></g></g></g></g><g clip-path="url(#b80e0be5c9)"><path fill="#ffffff" d="M 46.386719 236.320312 L 348.203125 236.320312 L 348.203125 251.4375 L 46.386719 251.4375 Z M 46.386719 236.320312 " fill-opacity="1" fill-rule="nonzero"/></g><path stroke-linecap="butt" transform="matrix(0.75, 0, 0, 0.75, 48.637209, 201.594157)" fill="none" stroke-linejoin="miter" d="M 19.551432 71.69217 L 18.093098 71.69217 C 15.733723 71.69217 13.83789 71.140087 12.405598 70.03592 L 12.405598 82.020296 L 3.113931 82.020296 L 3.113931 37.166126 L 10.952473 37.166126 L 10.952473 39.671335 C 12.384764 37.535918 14.764973 36.46821 18.093098 36.46821 L 19.551432 36.46821 C 25.280599 36.46821 28.150391 39.520293 28.150391 45.629668 L 28.150391 62.53592 C 28.150391 68.640087 25.280599 71.69217 19.551432 71.69217 Z M 12.405598 44.509877 L 12.405598 63.655711 C 12.405598 64.025503 12.530598 64.353628 12.780598 64.634878 C 13.041015 64.905711 13.353515 65.041128 13.728515 65.041128 L 17.535806 65.041128 C 17.905598 65.041128 18.218098 64.905711 18.468098 64.634878 C 18.728515 64.353628 18.853515 64.025503 18.853515 63.655711 L 18.853515 44.509877 C 18.853515 44.150502 18.728515 43.827585 18.468098 43.546335 C 18.218098 43.265085 17.905598 43.12446 17.535806 43.12446 L 13.728515 43.12446 C 13.353515 43.12446 13.041015 43.265085 12.780598 43.546335 C 12.530598 43.827585 12.405598 44.150502 12.405598 44.509877 Z M 48.176433 36.46821 L 49.988934 36.46821 L 49.988934 45.494252 L 45.400392 45.494252 C 43.832683 45.494252 43.051433 46.296335 43.051433 47.910919 L 43.051433 70.999462 L 33.759766 70.999462 L 33.759766 37.166126 L 42.2181 37.166126 L 42.2181 40.431751 C 43.56185 37.791126 45.551433 36.46821 48.176433 36.46821 Z M 69.87956 36.46821 C 75.613935 36.46821 78.478519 39.520293 78.478519 45.629668 L 78.478519 56.577586 L 62.738934 56.577586 L 62.738934 63.655711 C 62.738934 64.025503 62.863934 64.353628 63.113934 64.634878 C 63.369143 64.905711 63.686851 65.041128 64.061851 65.041128 L 67.869143 65.041128 C 68.238935 65.041128 68.551435 64.905711 68.796227 64.634878 C 69.056643 64.353628 69.186852 64.025503 69.186852 63.655711 L 69.186852 59.910919 L 78.478519 59.910919 L 78.478519 62.53592 C 78.478519 68.640087 75.613935 71.69217 69.87956 71.69217 L 62.046226 71.69217 C 56.311851 71.69217 53.447267 68.640087 53.447267 62.53592 L 53.447267 45.629668 C 53.447267 39.520293 56.311851 36.46821 62.046226 36.46821 Z M 62.738934 50.483835 L 69.186852 50.483835 L 69.186852 44.239043 C 69.186852 43.869252 69.056643 43.546335 68.796227 43.275502 C 68.551435 42.994252 68.238935 42.853627 67.869143 42.853627 L 64.061851 42.853627 C 63.686851 42.853627 63.369143 42.994252 63.113934 43.275502 C 62.863934 43.546335 62.738934 43.869252 62.738934 44.239043 Z M 107.947271 50.483835 L 98.650395 50.483835 L 98.650395 44.509877 C 98.650395 44.150502 98.520187 43.827585 98.264978 43.546335 C 98.014978 43.265085 97.702478 43.12446 97.332687 43.12446 L 93.525395 43.12446 C 93.150395 43.12446 92.837895 43.265085 92.577478 43.546335 C 92.327478 43.827585 92.202478 44.150502 92.202478 44.509877 L 92.202478 63.655711 C 92.202478 64.025503 92.327478 64.353628 92.577478 64.634878 C 92.837895 64.905711 93.150395 65.041128 93.525395 65.041128 L 97.332687 65.041128 C 97.702478 65.041128 98.014978 64.905711 98.264978 64.634878 C 98.520187 64.353628 98.650395 64.025503 98.650395 63.655711 L 98.650395 57.697378 L 107.947271 57.697378 L 107.947271 62.53592 C 107.947271 68.640087 105.077479 71.69217 99.348312 71.69217 L 91.50977 71.69217 C 85.775394 71.69217 82.910811 68.640087 82.910811 62.53592 L 82.910811 45.629668 C 82.910811 39.520293 85.775394 36.46821 91.50977 36.46821 L 99.348312 36.46821 C 105.077479 36.46821 107.947271 39.520293 107.947271 45.629668 Z M 122.598313 32.931751 C 121.60873 33.905709 120.416022 34.390084 119.030605 34.390084 C 117.650396 34.390084 116.447271 33.890084 115.42123 32.900501 C 114.405605 31.905709 113.900396 30.702584 113.900396 29.291126 C 113.900396 27.884876 114.405605 26.681751 115.42123 25.686959 C 116.447271 24.697375 117.650396 24.197375 119.030605 24.197375 C 120.416022 24.197375 121.60873 24.697375 122.598313 25.686959 C 123.593105 26.681751 124.087897 27.895292 124.087897 29.327584 C 124.087897 30.759876 123.593105 31.963001 122.598313 32.931751 Z M 114.38998 70.999462 L 114.38998 37.166126 L 123.681647 37.166126 L 123.681647 70.999462 Z M 145.442065 49.791127 C 151.17644 49.791127 154.041024 52.838002 154.041024 58.931753 L 154.041024 62.53592 C 154.041024 68.640087 151.17644 71.69217 145.442065 71.69217 L 137.759773 71.69217 C 132.025397 71.69217 129.160814 68.640087 129.160814 62.53592 L 129.160814 60.384878 L 137.759773 60.384878 L 137.759773 63.452586 C 137.759773 63.811961 137.884773 64.134878 138.129564 64.416128 C 138.389981 64.686961 138.707689 64.822378 139.077481 64.822378 L 144.749356 64.822378 C 145.124357 64.822378 145.431648 64.686961 145.681648 64.416128 C 145.942065 64.134878 146.072273 63.811961 146.072273 63.452586 L 146.072273 59.285919 C 146.072273 58.916128 145.942065 58.593211 145.681648 58.322378 C 145.431648 58.041128 145.124357 57.900503 144.749356 57.900503 L 137.624356 57.900503 C 131.889981 57.900503 129.025397 54.848419 129.025397 48.744252 L 129.025397 45.629668 C 129.025397 39.520293 131.889981 36.46821 137.624356 36.46821 L 144.900398 36.46821 C 150.634774 36.46821 153.499357 39.520293 153.499357 45.629668 L 153.499357 46.879669 L 144.900398 46.879669 L 144.900398 44.728627 C 144.900398 44.358835 144.77019 44.035918 144.514981 43.765085 C 144.264981 43.483835 143.952481 43.34321 143.58269 43.34321 L 138.317064 43.34321 C 137.947273 43.34321 137.629564 43.483835 137.369148 43.765085 C 137.119148 44.035918 136.999356 44.358835 136.999356 44.728627 L 136.999356 48.40571 C 136.999356 48.765085 137.119148 49.088002 137.369148 49.369252 C 137.629564 49.650502 137.947273 49.791127 138.317064 49.791127 Z M 168.285816 32.931751 C 167.296233 33.905709 166.103525 34.390084 164.712899 34.390084 C 163.337899 34.390084 162.134774 33.890084 161.108733 32.900501 C 160.093108 31.905709 159.587899 30.702584 159.587899 29.291126 C 159.587899 27.884876 160.093108 26.681751 161.108733 25.686959 C 162.134774 24.697375 163.337899 24.197375 164.712899 24.197375 C 166.103525 24.197375 167.296233 24.697375 168.285816 25.686959 C 169.280608 26.681751 169.7754 27.895292 169.7754 29.327584 C 169.7754 30.759876 169.280608 31.963001 168.285816 32.931751 Z M 160.077483 70.999462 L 160.077483 37.166126 L 169.36915 37.166126 L 169.36915 70.999462 Z M 200.21811 45.629668 L 200.21811 62.53592 C 200.21811 68.640087 197.353527 71.69217 191.619151 71.69217 L 183.785817 71.69217 C 178.051442 71.69217 175.186858 68.640087 175.186858 62.53592 L 175.186858 45.629668 C 175.186858 39.520293 178.051442 36.46821 183.785817 36.46821 L 191.619151 36.46821 C 197.353527 36.46821 200.21811 39.520293 200.21811 45.629668 Z M 190.926443 64.483836 L 190.926443 43.614043 C 190.926443 43.239043 190.796235 42.921335 190.541026 42.650502 C 190.291026 42.364043 189.978526 42.223418 189.608734 42.223418 L 185.801443 42.223418 C 185.426443 42.223418 185.108734 42.364043 184.853526 42.650502 C 184.603526 42.921335 184.478526 43.239043 184.478526 43.614043 L 184.478526 64.483836 C 184.478526 64.853628 184.603526 65.181753 184.853526 65.463003 C 185.108734 65.733836 185.426443 65.869253 185.801443 65.869253 L 189.608734 65.869253 C 189.978526 65.869253 190.291026 65.733836 190.541026 65.463003 C 190.796235 65.181753 190.926443 64.853628 190.926443 64.483836 Z M 215.124361 70.999462 L 205.827486 70.999462 L 205.827486 37.166126 L 214.291028 37.166126 L 214.291028 38.90571 C 215.723319 37.28071 217.895195 36.46821 220.806653 36.46821 L 222.264987 36.46821 C 227.999362 36.46821 230.863945 39.520293 230.863945 45.629668 L 230.863945 70.999462 L 221.572278 70.999462 L 221.572278 44.509877 C 221.572278 44.150502 221.44207 43.827585 221.181653 43.546335 C 220.931653 43.265085 220.624361 43.12446 220.249361 43.12446 L 216.44207 43.12446 C 216.072278 43.12446 215.754569 43.265085 215.494153 43.546335 C 215.244153 43.827585 215.124361 44.150502 215.124361 44.509877 Z M 274.817073 50.483835 L 265.525406 50.483835 L 265.525406 44.509877 C 265.525406 44.150502 265.395198 43.827585 265.134781 43.546335 C 264.884781 43.265085 264.577489 43.12446 264.202489 43.12446 L 260.395197 43.12446 C 260.025406 43.12446 259.707697 43.265085 259.447281 43.546335 C 259.197281 43.827585 259.077489 44.150502 259.077489 44.509877 L 259.077489 63.655711 C 259.077489 64.025503 259.197281 64.353628 259.447281 64.634878 C 259.707697 64.905711 260.025406 65.041128 260.395197 65.041128 L 264.202489 65.041128 C 264.577489 65.041128 264.884781 64.905711 265.134781 64.634878 C 265.395198 64.353628 265.525406 64.025503 265.525406 63.655711 L 265.525406 57.697378 L 274.817073 57.697378 L 274.817073 62.53592 C 274.817073 68.640087 271.95249 71.69217 266.218114 71.69217 L 258.379572 71.69217 C 252.650405 71.69217 249.785822 68.640087 249.785822 62.53592 L 249.785822 45.629668 C 249.785822 39.520293 252.650405 36.46821 258.379572 36.46821 L 266.218114 36.46821 C 271.95249 36.46821 274.817073 39.520293 274.817073 45.629668 Z M 294.431658 36.46821 L 296.244158 36.46821 L 296.244158 45.494252 L 291.655616 45.494252 C 290.087908 45.494252 289.301449 46.296335 289.301449 47.910919 L 289.301449 70.999462 L 280.009782 70.999462 L 280.009782 37.166126 L 288.473324 37.166126 L 288.473324 40.431751 C 289.817074 37.791126 291.801449 36.46821 294.431658 36.46821 Z M 316.895201 37.166126 L 324.733743 37.166126 L 324.733743 70.999462 L 316.895201 70.999462 L 316.895201 68.509878 C 315.462909 70.634878 313.082701 71.69217 309.754576 71.69217 L 308.296242 71.69217 C 302.567075 71.69217 299.697283 68.640087 299.697283 62.53592 L 299.697283 45.629668 C 299.697283 39.520293 302.567075 36.46821 308.296242 36.46821 L 309.754576 36.46821 C 313.082701 36.46821 315.462909 37.535918 316.895201 39.671335 Z M 315.442076 63.655711 L 315.442076 44.509877 C 315.442076 44.150502 315.311868 43.827585 315.051451 43.546335 C 314.801451 43.265085 314.494159 43.12446 314.119159 43.12446 L 310.311867 43.12446 C 309.942076 43.12446 309.624367 43.265085 309.363951 43.546335 C 309.113951 43.827585 308.994159 44.150502 308.994159 44.509877 L 308.994159 63.655711 C 308.994159 64.025503 309.113951 64.353628 309.363951 64.634878 C 309.624367 64.905711 309.942076 65.041128 310.311867 65.041128 L 314.119159 65.041128 C 314.494159 65.041128 314.801451 64.905711 315.051451 64.634878 C 315.311868 64.353628 315.442076 64.025503 315.442076 63.655711 Z M 342.681661 31.832793 C 341.666036 31.832793 340.905619 32.061959 340.395203 32.525501 C 339.889994 32.989043 339.634786 33.864043 339.634786 35.150501 L 339.634786 37.166126 L 345.457703 37.166126 L 345.457703 44.171335 L 339.634786 44.171335 L 339.634786 70.999462 L 330.343119 70.999462 L 330.343119 34.608834 C 330.343119 28.504667 333.207702 25.452584 338.942078 25.452584 L 345.457703 25.452584 L 345.457703 31.832793 Z M 361.192079 65.666128 L 363.968121 65.666128 L 363.968121 71.69217 L 357.452495 71.69217 C 351.71812 71.69217 348.853537 68.640087 348.853537 62.53592 L 348.853537 29.817167 L 358.145204 29.817167 L 358.145204 37.166126 L 363.968121 37.166126 L 363.968121 43.884877 L 358.145204 43.884877 L 358.145204 62.332795 C 358.145204 63.62967 358.400412 64.509878 358.905621 64.97342 C 359.416037 65.436961 360.176454 65.666128 361.192079 65.666128 Z M 384.072289 49.791127 C 389.801456 49.791127 392.671248 52.838002 392.671248 58.931753 L 392.671248 62.53592 C 392.671248 68.640087 389.801456 71.69217 384.072289 71.69217 L 376.384788 71.69217 C 370.655621 71.69217 367.785829 68.640087 367.785829 62.53592 L 367.785829 60.384878 L 376.384788 60.384878 L 376.384788 63.452586 C 376.384788 63.811961 376.509788 64.134878 376.759788 64.416128 C 377.020205 64.686961 377.332705 64.822378 377.707705 64.822378 L 383.374372 64.822378 C 383.749372 64.822378 384.056664 64.686961 384.306664 64.416128 C 384.567081 64.134878 384.697289 63.811961 384.697289 63.452586 L 384.697289 59.285919 C 384.697289 58.916128 384.567081 58.593211 384.306664 58.322378 C 384.056664 58.041128 383.749372 57.900503 383.374372 57.900503 L 376.249372 57.900503 C 370.520205 57.900503 367.650413 54.848419 367.650413 48.744252 L 367.650413 45.629668 C 367.650413 39.520293 370.520205 36.46821 376.249372 36.46821 L 383.530622 36.46821 C 389.259789 36.46821 392.129581 39.520293 392.129581 45.629668 L 392.129581 46.879669 L 383.530622 46.879669 L 383.530622 44.728627 C 383.530622 44.358835 383.400414 44.035918 383.139997 43.765085 C 382.889997 43.483835 382.582705 43.34321 382.207705 43.34321 L 376.94208 43.34321 C 376.572288 43.34321 376.25458 43.483835 375.994163 43.765085 C 375.749372 44.035918 375.624372 44.358835 375.624372 44.728627 L 375.624372 48.40571 C 375.624372 48.765085 375.749372 49.088002 375.994163 49.369252 C 376.25458 49.650502 376.572288 49.791127 376.94208 49.791127 Z M 384.072289 49.791127 " stroke="#ffffff" stroke-width="12.566661" stroke-opacity="1" stroke-miterlimit="4"/><g fill="#ff3131" fill-opacity="1"><g transform="translate(48.637209, 254.844154)"><g><path d="M 14.65625 0.515625 L 13.578125 0.515625 C 11.804688 0.515625 10.382812 0.0976562 9.3125 -0.734375 L 9.3125 8.265625 L 2.34375 8.265625 L 2.34375 -25.375 L 8.21875 -25.375 L 8.21875 -23.5 C 9.289062 -25.09375 11.078125 -25.890625 13.578125 -25.890625 L 14.65625 -25.890625 C 18.957031 -25.890625 21.109375 -23.601562 21.109375 -19.03125 L 21.109375 -6.34375 C 21.109375 -1.769531 18.957031 0.515625 14.65625 0.515625 Z M 9.3125 -19.859375 L 9.3125 -5.515625 C 9.3125 -5.234375 9.40625 -4.988281 9.59375 -4.78125 C 9.78125 -4.570312 10.015625 -4.46875 10.296875 -4.46875 L 13.15625 -4.46875 C 13.4375 -4.46875 13.671875 -4.570312 13.859375 -4.78125 C 14.046875 -4.988281 14.140625 -5.234375 14.140625 -5.515625 L 14.140625 -19.859375 C 14.140625 -20.140625 14.046875 -20.382812 13.859375 -20.59375 C 13.671875 -20.800781 13.4375 -20.90625 13.15625 -20.90625 L 10.296875 -20.90625 C 10.015625 -20.90625 9.78125 -20.800781 9.59375 -20.59375 C 9.40625 -20.382812 9.3125 -20.140625 9.3125 -19.859375 Z M 9.3125 -19.859375 "/></g></g></g><g fill="#ff3131" fill-opacity="1"><g transform="translate(71.619424, 254.844154)"><g><path d="M 13.15625 -25.890625 L 14.515625 -25.890625 L 14.515625 -19.140625 L 11.078125 -19.140625 C 9.898438 -19.140625 9.3125 -18.53125 9.3125 -17.3125 L 9.3125 0 L 2.34375 0 L 2.34375 -25.375 L 8.6875 -25.375 L 8.6875 -22.9375 C 9.6875 -24.90625 11.175781 -25.890625 13.15625 -25.890625 Z M 13.15625 -25.890625 "/></g></g></g><g fill="#ff3131" fill-opacity="1"><g transform="translate(86.386259, 254.844154)"><g><path d="M 14.65625 -25.890625 C 18.957031 -25.890625 21.109375 -23.601562 21.109375 -19.03125 L 21.109375 -10.8125 L 9.3125 -10.8125 L 9.3125 -5.515625 C 9.3125 -5.234375 9.40625 -4.988281 9.59375 -4.78125 C 9.78125 -4.570312 10.015625 -4.46875 10.296875 -4.46875 L 13.15625 -4.46875 C 13.4375 -4.46875 13.671875 -4.570312 13.859375 -4.78125 C 14.046875 -4.988281 14.140625 -5.234375 14.140625 -5.515625 L 14.140625 -8.3125 L 21.109375 -8.3125 L 21.109375 -6.34375 C 21.109375 -1.769531 18.957031 0.515625 14.65625 0.515625 L 8.78125 0.515625 C 4.488281 0.515625 2.34375 -1.769531 2.34375 -6.34375 L 2.34375 -19.03125 C 2.34375 -23.601562 4.488281 -25.890625 8.78125 -25.890625 Z M 9.3125 -15.390625 L 14.140625 -15.390625 L 14.140625 -20.078125 C 14.140625 -20.347656 14.046875 -20.585938 13.859375 -20.796875 C 13.671875 -21.003906 13.4375 -21.109375 13.15625 -21.109375 L 10.296875 -21.109375 C 10.015625 -21.109375 9.78125 -21.003906 9.59375 -20.796875 C 9.40625 -20.585938 9.3125 -20.347656 9.3125 -20.078125 Z M 9.3125 -15.390625 "/></g></g></g><g fill="#ff3131" fill-opacity="1"><g transform="translate(108.484541, 254.844154)"><g><path d="M 21.109375 -15.390625 L 14.140625 -15.390625 L 14.140625 -19.859375 C 14.140625 -20.140625 14.046875 -20.382812 13.859375 -20.59375 C 13.671875 -20.800781 13.4375 -20.90625 13.15625 -20.90625 L 10.296875 -20.90625 C 10.015625 -20.90625 9.78125 -20.800781 9.59375 -20.59375 C 9.40625 -20.382812 9.3125 -20.140625 9.3125 -19.859375 L 9.3125 -5.515625 C 9.3125 -5.234375 9.40625 -4.988281 9.59375 -4.78125 C 9.78125 -4.570312 10.015625 -4.46875 10.296875 -4.46875 L 13.15625 -4.46875 C 13.4375 -4.46875 13.671875 -4.570312 13.859375 -4.78125 C 14.046875 -4.988281 14.140625 -5.234375 14.140625 -5.515625 L 14.140625 -9.984375 L 21.109375 -9.984375 L 21.109375 -6.34375 C 21.109375 -1.769531 18.957031 0.515625 14.65625 0.515625 L 8.78125 0.515625 C 4.488281 0.515625 2.34375 -1.769531 2.34375 -6.34375 L 2.34375 -19.03125 C 2.34375 -23.601562 4.488281 -25.890625 8.78125 -25.890625 L 14.65625 -25.890625 C 18.957031 -25.890625 21.109375 -23.601562 21.109375 -19.03125 Z M 21.109375 -15.390625 "/></g></g></g><g fill="#ff3131" fill-opacity="1"><g transform="translate(131.154782, 254.844154)"><g><path d="M 9.4375 -28.546875 C 8.6875 -27.816406 7.789062 -27.453125 6.75 -27.453125 C 5.71875 -27.453125 4.816406 -27.820312 4.046875 -28.5625 C 3.285156 -29.3125 2.90625 -30.210938 2.90625 -31.265625 C 2.90625 -32.328125 3.285156 -33.226562 4.046875 -33.96875 C 4.816406 -34.71875 5.71875 -35.09375 6.75 -35.09375 C 7.789062 -35.09375 8.6875 -34.71875 9.4375 -33.96875 C 10.1875 -33.226562 10.5625 -32.320312 10.5625 -31.25 C 10.5625 -30.175781 10.1875 -29.273438 9.4375 -28.546875 Z M 3.28125 0 L 3.28125 -25.375 L 10.25 -25.375 L 10.25 0 Z M 3.28125 0 "/></g></g></g><g fill="#ff3131" fill-opacity="1"><g transform="translate(143.425811, 254.844154)"><g><path d="M 14.296875 -15.90625 C 18.597656 -15.90625 20.75 -13.617188 20.75 -9.046875 L 20.75 -6.34375 C 20.75 -1.769531 18.597656 0.515625 14.296875 0.515625 L 8.53125 0.515625 C 4.226562 0.515625 2.078125 -1.769531 2.078125 -6.34375 L 2.078125 -7.953125 L 8.53125 -7.953125 L 8.53125 -5.671875 C 8.53125 -5.390625 8.625 -5.144531 8.8125 -4.9375 C 9 -4.726562 9.234375 -4.625 9.515625 -4.625 L 13.78125 -4.625 C 14.0625 -4.625 14.296875 -4.726562 14.484375 -4.9375 C 14.671875 -5.144531 14.765625 -5.390625 14.765625 -5.671875 L 14.765625 -8.78125 C 14.765625 -9.0625 14.671875 -9.304688 14.484375 -9.515625 C 14.296875 -9.722656 14.0625 -9.828125 13.78125 -9.828125 L 8.421875 -9.828125 C 4.117188 -9.828125 1.96875 -12.113281 1.96875 -16.6875 L 1.96875 -19.03125 C 1.96875 -23.601562 4.117188 -25.890625 8.421875 -25.890625 L 13.890625 -25.890625 C 18.179688 -25.890625 20.328125 -23.601562 20.328125 -19.03125 L 20.328125 -18.09375 L 13.890625 -18.09375 L 13.890625 -19.703125 C 13.890625 -19.984375 13.789062 -20.226562 13.59375 -20.4375 C 13.40625 -20.644531 13.171875 -20.75 12.890625 -20.75 L 8.9375 -20.75 C 8.664062 -20.75 8.429688 -20.644531 8.234375 -20.4375 C 8.046875 -20.226562 7.953125 -19.984375 7.953125 -19.703125 L 7.953125 -16.953125 C 7.953125 -16.671875 8.046875 -16.425781 8.234375 -16.21875 C 8.429688 -16.007812 8.664062 -15.90625 8.9375 -15.90625 Z M 14.296875 -15.90625 "/></g></g></g><g fill="#ff3131" fill-opacity="1"><g transform="translate(165.420107, 254.844154)"><g><path d="M 9.4375 -28.546875 C 8.6875 -27.816406 7.789062 -27.453125 6.75 -27.453125 C 5.71875 -27.453125 4.816406 -27.820312 4.046875 -28.5625 C 3.285156 -29.3125 2.90625 -30.210938 2.90625 -31.265625 C 2.90625 -32.328125 3.285156 -33.226562 4.046875 -33.96875 C 4.816406 -34.71875 5.71875 -35.09375 6.75 -35.09375 C 7.789062 -35.09375 8.6875 -34.71875 9.4375 -33.96875 C 10.1875 -33.226562 10.5625 -32.320312 10.5625 -31.25 C 10.5625 -30.175781 10.1875 -29.273438 9.4375 -28.546875 Z M 3.28125 0 L 3.28125 -25.375 L 10.25 -25.375 L 10.25 0 Z M 3.28125 0 "/></g></g></g><g fill="#ff3131" fill-opacity="1"><g transform="translate(177.691136, 254.844154)"><g><path d="M 21.109375 -19.03125 L 21.109375 -6.34375 C 21.109375 -1.769531 18.957031 0.515625 14.65625 0.515625 L 8.78125 0.515625 C 4.488281 0.515625 2.34375 -1.769531 2.34375 -6.34375 L 2.34375 -19.03125 C 2.34375 -23.601562 4.488281 -25.890625 8.78125 -25.890625 L 14.65625 -25.890625 C 18.957031 -25.890625 21.109375 -23.601562 21.109375 -19.03125 Z M 14.140625 -4.890625 L 14.140625 -20.546875 C 14.140625 -20.816406 14.046875 -21.054688 13.859375 -21.265625 C 13.671875 -21.472656 13.4375 -21.578125 13.15625 -21.578125 L 10.296875 -21.578125 C 10.015625 -21.578125 9.78125 -21.472656 9.59375 -21.265625 C 9.40625 -21.054688 9.3125 -20.816406 9.3125 -20.546875 L 9.3125 -4.890625 C 9.3125 -4.609375 9.40625 -4.363281 9.59375 -4.15625 C 9.78125 -3.945312 10.015625 -3.84375 10.296875 -3.84375 L 13.15625 -3.84375 C 13.4375 -3.84375 13.671875 -3.945312 13.859375 -4.15625 C 14.046875 -4.363281 14.140625 -4.609375 14.140625 -4.890625 Z M 14.140625 -4.890625 "/></g></g></g><g fill="#ff3131" fill-opacity="1"><g transform="translate(200.673355, 254.844154)"><g><path d="M 9.3125 0 L 2.34375 0 L 2.34375 -25.375 L 8.6875 -25.375 L 8.6875 -24.078125 C 9.757812 -25.285156 11.390625 -25.890625 13.578125 -25.890625 L 14.65625 -25.890625 C 18.957031 -25.890625 21.109375 -23.601562 21.109375 -19.03125 L 21.109375 0 L 14.140625 0 L 14.140625 -19.859375 C 14.140625 -20.140625 14.046875 -20.382812 13.859375 -20.59375 C 13.671875 -20.800781 13.4375 -20.90625 13.15625 -20.90625 L 10.296875 -20.90625 C 10.015625 -20.90625 9.78125 -20.800781 9.59375 -20.59375 C 9.40625 -20.382812 9.3125 -20.140625 9.3125 -19.859375 Z M 9.3125 0 "/></g></g></g><g fill="#ff3131" fill-opacity="1"><g transform="translate(223.655573, 254.844154)"><g/></g></g><g fill="#ff3131" fill-opacity="1"><g transform="translate(233.63878, 254.844154)"><g><path d="M 21.109375 -15.390625 L 14.140625 -15.390625 L 14.140625 -19.859375 C 14.140625 -20.140625 14.046875 -20.382812 13.859375 -20.59375 C 13.671875 -20.800781 13.4375 -20.90625 13.15625 -20.90625 L 10.296875 -20.90625 C 10.015625 -20.90625 9.78125 -20.800781 9.59375 -20.59375 C 9.40625 -20.382812 9.3125 -20.140625 9.3125 -19.859375 L 9.3125 -5.515625 C 9.3125 -5.234375 9.40625 -4.988281 9.59375 -4.78125 C 9.78125 -4.570312 10.015625 -4.46875 10.296875 -4.46875 L 13.15625 -4.46875 C 13.4375 -4.46875 13.671875 -4.570312 13.859375 -4.78125 C 14.046875 -4.988281 14.140625 -5.234375 14.140625 -5.515625 L 14.140625 -9.984375 L 21.109375 -9.984375 L 21.109375 -6.34375 C 21.109375 -1.769531 18.957031 0.515625 14.65625 0.515625 L 8.78125 0.515625 C 4.488281 0.515625 2.34375 -1.769531 2.34375 -6.34375 L 2.34375 -19.03125 C 2.34375 -23.601562 4.488281 -25.890625 8.78125 -25.890625 L 14.65625 -25.890625 C 18.957031 -25.890625 21.109375 -23.601562 21.109375 -19.03125 Z M 21.109375 -15.390625 "/></g></g></g><g fill="#ff3131" fill-opacity="1"><g transform="translate(256.309009, 254.844154)"><g><path d="M 13.15625 -25.890625 L 14.515625 -25.890625 L 14.515625 -19.140625 L 11.078125 -19.140625 C 9.898438 -19.140625 9.3125 -18.53125 9.3125 -17.3125 L 9.3125 0 L 2.34375 0 L 2.34375 -25.375 L 8.6875 -25.375 L 8.6875 -22.9375 C 9.6875 -24.90625 11.175781 -25.890625 13.15625 -25.890625 Z M 13.15625 -25.890625 "/></g></g></g><g fill="#ff3131" fill-opacity="1"><g transform="translate(271.075846, 254.844154)"><g><path d="M 15.234375 -25.375 L 21.109375 -25.375 L 21.109375 0 L 15.234375 0 L 15.234375 -1.875 C 14.160156 -0.28125 12.375 0.515625 9.875 0.515625 L 8.78125 0.515625 C 4.488281 0.515625 2.34375 -1.769531 2.34375 -6.34375 L 2.34375 -19.03125 C 2.34375 -23.601562 4.488281 -25.890625 8.78125 -25.890625 L 9.875 -25.890625 C 12.375 -25.890625 14.160156 -25.09375 15.234375 -23.5 Z M 14.140625 -5.515625 L 14.140625 -19.859375 C 14.140625 -20.140625 14.046875 -20.382812 13.859375 -20.59375 C 13.671875 -20.800781 13.4375 -20.90625 13.15625 -20.90625 L 10.296875 -20.90625 C 10.015625 -20.90625 9.78125 -20.800781 9.59375 -20.59375 C 9.40625 -20.382812 9.3125 -20.140625 9.3125 -19.859375 L 9.3125 -5.515625 C 9.3125 -5.234375 9.40625 -4.988281 9.59375 -4.78125 C 9.78125 -4.570312 10.015625 -4.46875 10.296875 -4.46875 L 13.15625 -4.46875 C 13.4375 -4.46875 13.671875 -4.570312 13.859375 -4.78125 C 14.046875 -4.988281 14.140625 -5.234375 14.140625 -5.515625 Z M 14.140625 -5.515625 "/></g></g></g><g fill="#ff3131" fill-opacity="1"><g transform="translate(294.058052, 254.844154)"><g><path d="M 11.59375 -29.375 C 10.832031 -29.375 10.257812 -29.203125 9.875 -28.859375 C 9.5 -28.515625 9.3125 -27.859375 9.3125 -26.890625 L 9.3125 -25.375 L 13.671875 -25.375 L 13.671875 -20.125 L 9.3125 -20.125 L 9.3125 0 L 2.34375 0 L 2.34375 -27.296875 C 2.34375 -31.867188 4.488281 -34.15625 8.78125 -34.15625 L 13.671875 -34.15625 L 13.671875 -29.375 Z M 11.59375 -29.375 "/></g></g></g><g fill="#ff3131" fill-opacity="1"><g transform="translate(307.940948, 254.844154)"><g><path d="M 11.59375 -4 L 13.671875 -4 L 13.671875 0.515625 L 8.78125 0.515625 C 4.488281 0.515625 2.34375 -1.769531 2.34375 -6.34375 L 2.34375 -30.890625 L 9.3125 -30.890625 L 9.3125 -25.375 L 13.671875 -25.375 L 13.671875 -20.328125 L 9.3125 -20.328125 L 9.3125 -6.5 C 9.3125 -5.53125 9.5 -4.867188 9.875 -4.515625 C 10.257812 -4.171875 10.832031 -4 11.59375 -4 Z M 11.59375 -4 "/></g></g></g><g fill="#ff3131" fill-opacity="1"><g transform="translate(322.39582, 254.844154)"><g><path d="M 14.296875 -15.90625 C 18.597656 -15.90625 20.75 -13.617188 20.75 -9.046875 L 20.75 -6.34375 C 20.75 -1.769531 18.597656 0.515625 14.296875 0.515625 L 8.53125 0.515625 C 4.226562 0.515625 2.078125 -1.769531 2.078125 -6.34375 L 2.078125 -7.953125 L 8.53125 -7.953125 L 8.53125 -5.671875 C 8.53125 -5.390625 8.625 -5.144531 8.8125 -4.9375 C 9 -4.726562 9.234375 -4.625 9.515625 -4.625 L 13.78125 -4.625 C 14.0625 -4.625 14.296875 -4.726562 14.484375 -4.9375 C 14.671875 -5.144531 14.765625 -5.390625 14.765625 -5.671875 L 14.765625 -8.78125 C 14.765625 -9.0625 14.671875 -9.304688 14.484375 -9.515625 C 14.296875 -9.722656 14.0625 -9.828125 13.78125 -9.828125 L 8.421875 -9.828125 C 4.117188 -9.828125 1.96875 -12.113281 1.96875 -16.6875 L 1.96875 -19.03125 C 1.96875 -23.601562 4.117188 -25.890625 8.421875 -25.890625 L 13.890625 -25.890625 C 18.179688 -25.890625 20.328125 -23.601562 20.328125 -19.03125 L 20.328125 -18.09375 L 13.890625 -18.09375 L 13.890625 -19.703125 C 13.890625 -19.984375 13.789062 -20.226562 13.59375 -20.4375 C 13.40625 -20.644531 13.171875 -20.75 12.890625 -20.75 L 8.9375 -20.75 C 8.664062 -20.75 8.429688 -20.644531 8.234375 -20.4375 C 8.046875 -20.226562 7.953125 -19.984375 7.953125 -19.703125 L 7.953125 -16.953125 C 7.953125 -16.671875 8.046875 -16.425781 8.234375 -16.21875 C 8.429688 -16.007812 8.664062 -15.90625 8.9375 -15.90625 Z M 14.296875 -15.90625 "/></g></g></g></svg>